*******************************************************************************
                            Shellter (2009) WEBRip
*******************************************************************************

-------------------------------------------------------------------------------
                              General Information
-------------------------------------------------------------------------------
Type.................: Movie



Video Format.........: AVI
Video Bitrate........: 1622
Resolution...........: 640 x 360
Color................: 8 bit
FPS..................: 24.000
Source...............: WEB 16:9
Original Format......: NTSC
Genre................: Horror
IMDb Rating..........: 5.3
Movie Information....: http://www.imdb.com/title/tt1378339/

-------------------------------------------------------------------------------
                               Post Information
-------------------------------------------------------------------------------
Posted by............: RadioResearch
Posted on............: 4/17/2013

-------------------------------------------------------------------------------
                                 Release Notes
-------------------------------------------------------------------------------
SEEDBOX SPPORTED!!

A young woman, Zoey, finds herself in a hospital room in an underground fallout 
shelter. The doctor, who runs the shelter, explains that an infection has killed 
the entire population above ground. The only people left are either a few lone 
survivors like herself, and the infected... the living dead. The only way of 
curing the infection, she is told, is by surgically removing the affected area. 
The doctor is assisted by a nurse who has seemingly gone completely insane. 
Together, they "treat" a steady stream of survivors. The doctor wants Zoey to to 
replace the unstable nurse and become his new assistant. Zoey is very hesitant, 
but the doctor is willing to do whatever it takes to survive, no matter how 
questionable or terrible the acts. But after a patient offers to trade places 
with Zoey and do "anything" the doctor wants, Zoey realizes that if she doesn't 
do these terrible things, someone else will do these things to her. Zoey has to 
decide what she is willing to do to survive, and the viewer has to make the same 
decision: How far would you go to survive? Don't kid yourself, you'd do 
anything.

Enjoy!

RadioResearch

General
Complete name                            : G:Shellter (2009) WEBRip
Shellter.avi
Format                                   : AVI
Format/Info                              : Audio Video Interleave
File size                                : 1 022 MiB
Duration                                 : 1h 28mn
Overall bit rate                         : 1 622 Kbps

Video
ID                                       : 0
Format                                   : MPEG-4 Visual
Format profile                           : Simple@L3
Format settings, BVOP                    : No
Format settings, QPel                    : No
Format settings, GMC                     : No warppoints
Format settings, Matrix                  : Default (H.263)
Codec ID                                 : XVID
Codec ID/Hint                            : XviD
Duration                                 : 1h 28mn
Bit rate                                 : 1 482 Kbps
Width                                    : 640 pixels
Height                                   : 360 pixels
Display aspect ratio                     : 16:9
Frame rate                               : 24.000 fps
Color space                              : YUV
Chroma subsampling                       : 4:2:0
Bit depth                                : 8 bits
Scan type                                : Progressive
Compression mode                         : Lossy
Bits/(Pixel*Frame)                       : 0.268
Stream size                              : 934 MiB (91%)
Writing library                          : XviD 1.2.1 (UTC 2008-12-04)

Audio
ID                                       : 1
Format                                   : MPEG Audio
Format version                           : Version 1
Format profile                           : Layer 3
Mode                                     : Joint stereo
Mode extension                           : MS Stereo
Codec ID                                 : 55
Codec ID/Hint                            : MP3
Duration                                 : 1h 28mn
Bit rate mode                            : Constant
Bit rate                                 : 128 Kbps
Channel(s)                               : 2 channels
Sampling rate                            : 44.1 KHz
Compression mode                         : Lossy
Stream size                              : 80.6 MiB (8%)
Alignment                                : Aligned on interleaves
Interleave, duration                     : 26 ms (0.63 video frame)
Writing library                          : LAME3.98.2




-------------------------------------------------------------------------------
Generated with Cool NFO Creator - http://fly.to/coolbeans
-------------------------------------------------------------------------------
